<svg width="866" height="659" viewBox="0 0 866 659" fill="none" xmlns="http://www.w3.org/2000/svg">
<g id="Balloon svg" clip-path="url(#clip0_209_2)">
<g id="Balloon">
<g id="Group 5">
<g id="Group 4">
<g id="Group 3">
<path id="Vector" opacity="0.1" d="M536.719 564.419L526.8 586.013L521.133 580.277L536.719 564.419Z" fill="black"/>
<path id="Vector_2" d="M526.882 597.073C533.563 597.043 540.201 598.154 546.508 600.358C546.728 589.77 543.178 579.447 536.493 571.233L536.444 571.174L536.469 571.101C538.229 566.015 540.048 560.758 541.674 555.528L541.65 555.44C540.509 551.387 538.062 547.291 534.168 542.918C533.746 542.481 533.173 542.22 532.566 542.189C531.958 542.159 531.362 542.36 530.897 542.753C527.486 545.872 524.829 549.727 523.127 554.026C521.425 558.324 520.724 562.953 521.076 567.563L521.078 567.589L521.071 567.614C518.022 577.944 516.915 583.25 515.939 587.931C515.226 591.346 514.609 594.302 513.371 598.527C517.81 597.561 522.339 597.074 526.882 597.073V597.073Z" fill="#CBCBCB"/>
<path id="Vector_3" d="M523.863 645.1L523.806 645.1C522.175 645.095 520.546 645.001 518.925 644.819C518.307 644.758 517.637 644.692 516.83 644.625L516.802 644.62C516.252 644.456 516.236 639.291 516.47 621.609C516.589 612.553 516.725 602.289 516.564 595.752L516.562 595.687L516.611 595.645C519.526 593.089 523.005 591.259 526.763 590.305C530.521 589.351 534.452 589.3 538.234 590.155L538.293 590.168L538.324 590.22C541.618 595.794 546.592 603.823 551.403 611.589C562.446 629.414 565.604 634.657 565.258 635.052L565.216 635.084C564.462 635.461 563.896 635.752 563.415 635.998C561.509 636.985 559.552 637.868 557.551 638.643L557.463 638.679L557.398 638.609C546.193 626.331 536.869 612.616 531.102 599.937C530.428 604.265 529.61 609.917 528.745 615.889C526.26 633.062 524.58 644.37 523.904 645.059L523.863 645.1Z" fill="#2F2E41"/>
<path id="Vector_4" d="M522.992 647.768H519.639L518.044 634.839H522.992V647.768Z" fill="#9F616A"/>
<path id="Vector_5" d="M523.847 651.018H513.038V650.881C513.039 649.766 513.483 648.696 514.272 647.907C515.06 647.119 516.13 646.675 517.245 646.674H523.847V651.018Z" fill="#2F2E41"/>
<path id="Vector_6" d="M566.219 641.416L563.345 643.143L555.319 632.881L559.56 630.333L566.219 641.416Z" fill="#9F616A"/>
<path id="Vector_7" d="M559.36 649.328L559.29 649.211C558.716 648.254 558.546 647.109 558.816 646.027C559.085 644.944 559.774 644.013 560.729 643.438L566.388 640.038L568.625 643.761L559.36 649.328Z" fill="#2F2E41"/>
<path id="Vector_8" d="M547.274 646.307H543.163L541.208 630.453H547.274V646.307Z" fill="#FFB7B7"/>
<path id="Vector_9" d="M540.227 645.132H548.154V650.123H535.236C535.236 649.468 535.365 648.819 535.616 648.213C535.867 647.608 536.235 647.058 536.698 646.594C537.162 646.131 537.712 645.763 538.317 645.512C538.923 645.261 539.572 645.132 540.227 645.132Z" fill="#2F2E41"/>
<path id="Vector_10" d="M562.696 646.307H558.586L556.63 630.453H562.697L562.696 646.307Z" fill="#FFB7B7"/>
<path id="Vector_11" d="M555.649 645.132H563.576V650.123H550.658C550.658 648.8 551.184 647.53 552.12 646.594C553.056 645.658 554.326 645.132 555.649 645.132Z" fill="#2F2E41"/>
<path id="Vector_12" d="M547.079 638.32L542.555 638.104C542.169 638.086 541.805 637.921 541.538 637.642C541.271 637.364 541.12 636.994 541.118 636.608L540.802 590.825C540.8 590.608 540.846 590.393 540.935 590.195C541.024 589.997 541.156 589.82 541.319 589.677C541.483 589.535 541.676 589.429 541.884 589.367C542.093 589.306 542.312 589.29 542.527 589.322L560.629 591.949C560.987 591.999 561.315 592.177 561.552 592.449C561.789 592.721 561.921 593.07 561.921 593.431L564.25 635.854C564.251 636.053 564.213 636.25 564.138 636.434C564.063 636.619 563.952 636.786 563.812 636.928C563.672 637.069 563.505 637.181 563.321 637.258C563.137 637.334 562.94 637.374 562.741 637.374H557.863C557.503 637.375 557.154 637.247 556.881 637.013C556.607 636.78 556.427 636.455 556.372 636.099C556.372 636.099 552.688 604.279 552.182 604.297C551.673 604.307 548.649 636.992 548.649 636.992C548.604 637.358 548.427 637.695 548.151 637.94C547.875 638.185 547.52 638.321 547.151 638.322C547.127 638.322 547.103 638.321 547.079 638.32Z" fill="#2F2E41"/>
<path id="Vector_13" d="M604.591 593.451H481.591V657.549H604.591V593.451Z" fill="white"/>
<path id="Vector_14" d="M738.09 198C738.09 384 543.09 473 543.09 473C543.09 473 346.09 384 342.09 198C339.739 88.6729 430.738 0 540.09 0C649.443 0 738.09 88.6477 738.09 198Z" fill="#6C63FF"/>
<path id="Vector_15" d="M560.561 568.108C560.378 567.976 560.228 567.806 560.12 567.608C560.012 567.411 559.95 567.192 559.938 566.968L559.367 556.616C559.31 555.59 559.635 554.58 560.279 553.78C560.924 552.98 561.841 552.447 562.855 552.283C563.869 552.12 564.908 552.337 565.771 552.894C566.634 553.451 567.26 554.308 567.529 555.299L570.038 564.554C570.143 564.941 570.089 565.352 569.891 565.699C569.692 566.046 569.363 566.3 568.977 566.405L561.839 568.341C561.622 568.4 561.395 568.41 561.174 568.369C560.952 568.329 560.743 568.24 560.561 568.108V568.108Z" fill="#3F3D56"/>
<path id="Vector_16" d="M559.72 541.786C559.376 542.157 558.933 542.422 558.443 542.55C557.953 542.679 557.437 542.664 556.955 542.509C556.473 542.354 556.045 542.064 555.722 541.674C555.399 541.285 555.194 540.811 555.131 540.308C555.115 540.135 555.116 539.96 555.134 539.787C555.238 538.796 555.81 537.897 555.673 536.852C555.642 536.592 555.545 536.344 555.391 536.131C554.167 534.492 551.293 536.865 550.138 535.381C549.43 534.471 550.262 533.038 549.719 532.021C549.001 530.679 546.876 531.341 545.543 530.606C544.061 529.788 544.149 527.513 545.125 526.129C545.761 525.312 546.569 524.644 547.491 524.174C548.414 523.705 549.429 523.444 550.464 523.411C552.536 523.363 554.594 523.764 556.496 524.589C558.742 525.319 560.724 526.693 562.196 528.541C562.957 529.752 563.44 531.117 563.609 532.538C563.777 533.959 563.628 535.399 563.171 536.755C562.673 538.418 560.975 540.45 559.72 541.786Z" fill="#2F2E41"/>
<path id="Vector_17" d="M562.113 549.006C561.969 548.903 561.824 548.802 561.675 548.703C560.884 548.177 560.028 547.757 559.128 547.454V545.291H552.758V547.298C550.647 547.881 548.753 549.071 547.313 550.722C545.872 552.372 544.949 554.409 544.657 556.58L540.32 588.783C540.292 588.984 540.305 589.189 540.359 589.385C540.413 589.581 540.505 589.764 540.632 589.923C540.756 590.081 540.91 590.212 541.086 590.309C541.262 590.405 541.456 590.465 541.656 590.484C544.695 590.878 547.623 591.881 550.265 593.433C552.184 594.496 554.343 595.047 556.536 595.034C558.278 595.027 560.005 594.72 561.641 594.125C561.919 594.023 562.16 593.841 562.334 593.602C562.508 593.363 562.607 593.077 562.619 592.782C562.776 589.317 563.689 571.478 566.349 560.597C566.866 558.463 566.74 556.223 565.986 554.16C565.232 552.097 563.884 550.304 562.113 549.006Z" fill="#3F3D56"/>
<path id="Vector_18" d="M609.091 484H477.091L461.091 420H625.091L609.091 484Z" fill="#3F3D56"/>
<path id="Vector_19" d="M605.591 658.549H480.591V592.451H605.591V658.549ZM482.591 656.549H603.591V594.451H482.591V656.549Z" fill="#3F3D56"/>
<path id="Vector_20" d="M568.304 491.547H517.878L512.091 482.453H574.091L568.304 491.547Z" fill="#3F3D56"/>
<path id="Vector_21" d="M608.091 484H606.091V582H608.091V484Z" fill="#3F3D56"/>
<path id="Vector_22" d="M563.138 418.916L561.917 417.332C619.695 372.776 688.57 296.444 688.57 185.829C688.616 147.087 677.222 109.194 655.818 76.9022C634.413 44.6103 603.951 19.3571 568.25 4.30956L569.03 2.46777C605.092 17.668 635.864 43.1774 657.485 75.797C679.107 108.416 690.616 146.694 690.57 185.829C690.57 297.256 621.272 374.085 563.138 418.916Z" fill="#3F3D56"/>
<path id="Vector_23" d="M499.137 418.916L497.916 417.332C555.695 372.776 624.569 296.444 624.569 185.829C624.585 147.347 613.328 109.705 592.189 77.5498C571.05 45.3949 540.954 20.1367 505.62 4.89502L506.413 3.05908C542.106 18.4554 572.507 43.9699 593.86 76.4511C615.214 108.932 626.585 146.957 626.569 185.829C626.569 297.257 557.271 374.086 499.137 418.916Z" fill="#3F3D56"/>
<path id="Vector_24" d="M581.044 418.916C522.91 374.086 453.612 297.257 453.612 185.829C453.596 146.957 464.968 108.932 486.322 76.4503C507.676 43.9691 538.077 18.4546 573.77 3.05859L574.563 4.89452C539.229 20.1359 509.133 45.3941 487.993 77.5491C466.854 109.704 455.597 147.347 455.612 185.829C455.612 296.444 524.487 372.776 582.265 417.332L581.044 418.916Z" fill="#3F3D56"/>
<path id="Vector_25" d="M517.044 418.916C458.91 374.086 389.613 297.257 389.613 185.829C389.547 146.54 401.138 108.114 422.917 75.4141C444.696 42.7141 475.686 17.2092 511.964 2.12646L512.735 3.97216C476.821 18.9032 446.143 44.1519 424.582 76.5234C403.022 108.895 391.548 146.934 391.613 185.829C391.613 296.445 460.487 372.776 518.265 417.332L517.044 418.916Z" fill="#3F3D56"/>
<path id="Vector_26" d="M541.091 0H539.091V420H541.091V0Z" fill="#3F3D56"/>
<path id="Vector_27" d="M517.558 578.918L480.884 615.592L482.298 617.006L518.972 580.332L517.558 578.918Z" fill="#3F3D56"/>
<path id="Vector_28" d="M535.387 578.308L480.87 635.645L482.319 637.023L536.836 579.686L535.387 578.308Z" fill="#3F3D56"/>
<path id="Vector_29" d="M617.091 598H465.091V578H617.091V598ZM467.091 596H615.091V580H467.091V596Z" fill="#3F3D56"/>
<path id="Vector_30" d="M522.469 583.514L522.366 583.441C520.421 582.01 518.262 580.529 516.173 579.098L516.048 579.012L516.147 578.896C520.604 573.681 525.066 568.234 529.382 562.965L529.373 562.946L529.414 562.925L529.431 562.904L529.44 562.912L529.466 562.899L529.349 562.908L528.019 552.476C527.36 551.391 527.024 550.141 527.049 548.873C527.075 547.604 527.46 546.368 528.162 545.311C528.969 544.17 530.169 543.367 531.531 543.055C532.894 542.744 534.324 542.947 535.546 543.625C536.149 544.03 536.654 544.565 537.022 545.192C537.39 545.818 537.613 546.519 537.674 547.243C537.759 547.888 537.7 548.544 537.499 549.163C537.299 549.783 536.963 550.349 536.515 550.822C536.975 555.884 537.178 560.967 537.123 566.05L537.124 566.098L537.094 566.137C532.493 571.982 527.439 577.796 522.552 583.419L522.469 583.514Z" fill="#CBCBCB"/>
<path id="Vector_31" d="M524.053 551.449C524.094 551.63 524.121 551.814 524.133 551.999L538.535 560.307L542.036 558.292L545.768 563.178L538.279 568.515L521.848 555.553C521.178 555.801 520.449 555.839 519.756 555.662C519.064 555.486 518.442 555.102 517.973 554.563C517.504 554.024 517.21 553.355 517.13 552.645C517.051 551.935 517.189 551.217 517.527 550.588C517.865 549.958 518.387 549.447 519.023 549.121C519.659 548.795 520.379 548.671 521.088 548.764C521.796 548.858 522.459 549.165 522.989 549.644C523.519 550.124 523.89 550.753 524.053 551.449H524.053Z" fill="#FFB7B7"/>
<path id="Vector_32" d="M539.05 559.601C539.026 559.378 539.052 559.151 539.127 558.939C539.202 558.727 539.324 558.535 539.483 558.376L546.813 551.045C547.539 550.318 548.509 549.887 549.535 549.833C550.56 549.779 551.57 550.107 552.368 550.753C553.166 551.399 553.697 552.318 553.858 553.332C554.019 554.347 553.799 555.385 553.24 556.247L548.02 564.29C547.801 564.626 547.459 564.861 547.068 564.944C546.677 565.027 546.268 564.952 545.933 564.735L539.729 560.709C539.54 560.587 539.381 560.424 539.263 560.232C539.146 560.04 539.073 559.825 539.05 559.601V559.601Z" fill="#3F3D56"/>
<path id="Vector_33" d="M532.478 540.816C536.375 540.816 539.535 537.657 539.535 533.76C539.535 529.862 536.375 526.703 532.478 526.703C528.58 526.703 525.421 529.862 525.421 533.76C525.421 537.657 528.58 540.816 532.478 540.816Z" fill="#9F616A"/>
<path id="Vector_34" d="M535.748 524.027C542.446 524.027 544.321 532.424 544.321 537.161C544.321 539.802 543.127 540.747 541.249 541.067L540.586 537.531L539.033 541.219C538.506 541.222 537.952 541.212 537.378 541.201L536.851 540.117L535.677 541.182C530.975 541.189 527.174 541.874 527.174 537.161C527.174 532.424 528.818 524.027 535.748 524.027Z" fill="#2F2E41"/>
<path id="Vector_35" d="M523.922 529.773H535.127V524.889C532.668 523.911 530.261 523.08 528.806 524.889C527.511 524.889 526.269 525.403 525.353 526.319C524.437 527.235 523.922 528.478 523.922 529.773V529.773Z" fill="#2F2E41"/>
<path id="Vector_36" d="M562.194 599.089C561.751 598.804 561.376 598.425 561.095 597.98C560.814 597.534 560.635 597.033 560.569 596.51C560.503 595.988 560.552 595.458 560.714 594.956C560.875 594.455 561.144 593.995 561.502 593.609L558.796 555.202L566.592 555.958L566.806 593.57C567.414 594.215 567.765 595.061 567.792 595.947C567.819 596.833 567.519 597.698 566.951 598.378C566.382 599.058 565.584 599.506 564.707 599.637C563.831 599.768 562.936 599.573 562.194 599.089Z" fill="#FFB7B7"/>
<path id="Vector_37" d="M480.091 484H478.091V582H480.091V484Z" fill="#3F3D56"/>
<path id="Vector_38" d="M616.091 579H466.091V597H616.091V579Z" fill="white"/>
<path id="Vector_39" d="M553.893 543.506C558.44 543.506 562.127 539.819 562.127 535.271C562.127 530.723 558.44 527.037 553.893 527.037C549.345 527.037 545.658 530.723 545.658 535.271C545.658 539.819 549.345 543.506 553.893 543.506Z" fill="#FFB7B7"/>
</g>
</g>
<path id="Vector_40" d="M514.605 587.372C515.006 587.344 515.396 587.229 515.747 587.034C516.099 586.839 516.404 586.569 516.64 586.244C516.876 585.918 517.037 585.545 517.114 585.151C517.19 584.756 517.179 584.349 517.081 583.959L525.254 578.605L520.593 576.591L513.546 581.985C512.902 582.193 512.357 582.629 512.013 583.213C511.67 583.796 511.552 584.485 511.683 585.149C511.813 585.813 512.183 586.406 512.721 586.816C513.26 587.225 513.93 587.423 514.605 587.372H514.605Z" fill="#9F616A"/>
</g>
</g>
<g id="background">
<path id="Vector_41" d="M307.917 153.234C307.558 153.234 307.212 153.098 306.95 152.852C306.687 152.607 306.527 152.272 306.502 151.913C305.573 139.292 299.912 127.486 290.652 118.86C281.393 110.233 269.217 105.421 256.561 105.387C255.046 105.387 253.455 105.464 251.832 105.616C251.56 105.641 251.287 105.588 251.045 105.463C250.803 105.337 250.602 105.144 250.467 104.908C244.653 94.7321 235.972 86.494 225.506 81.2213C215.04 75.9486 203.253 73.8749 191.616 75.259C179.979 76.643 169.008 81.4235 160.07 89.0038C151.133 96.5842 144.626 106.629 141.362 117.884C141.276 118.185 141.092 118.45 140.839 118.635C140.586 118.821 140.278 118.917 139.965 118.909L139.587 118.897C139.39 118.891 139.194 118.884 138.996 118.884C129.397 118.914 120.097 122.225 112.638 128.268C105.18 134.311 100.012 142.723 97.9918 152.107C97.9245 152.426 97.7497 152.712 97.4966 152.917C97.2435 153.123 96.9275 153.235 96.6016 153.235H1.42087C1.04472 153.234 0.684325 153.083 0.418701 152.817C0.153077 152.551 0.00390625 152.19 0.00390625 151.814C0.00390625 151.438 0.153077 151.077 0.418701 150.811C0.684325 150.544 1.04472 150.394 1.42087 150.393H95.4646C97.8321 140.632 103.401 131.946 111.282 125.719C119.163 119.493 128.903 116.086 138.947 116.043C142.523 104.476 149.38 94.1977 158.687 86.455C167.993 78.7122 179.348 73.8388 191.371 72.4267C203.395 71.0146 215.57 73.1246 226.417 78.5004C237.264 83.8762 246.316 92.2864 252.474 102.709C253.872 102.6 255.243 102.546 256.561 102.546C269.935 102.582 282.802 107.667 292.588 116.784C302.373 125.901 308.355 138.376 309.336 151.714C309.349 151.9 309.326 152.087 309.266 152.264C309.207 152.441 309.114 152.605 308.992 152.746C308.869 152.887 308.72 153.002 308.553 153.085C308.386 153.168 308.205 153.218 308.018 153.231C307.985 153.233 307.951 153.234 307.917 153.234Z" fill="#CBCBCB"/>
<path id="Vector_42" d="M291.013 171.451H58.0145C57.6377 171.451 57.2763 171.301 57.0099 171.034C56.7434 170.768 56.5938 170.407 56.5938 170.03C56.5938 169.653 56.7434 169.292 57.0099 169.025C57.2763 168.759 57.6377 168.609 58.0145 168.609H291.013C291.39 168.609 291.751 168.759 292.018 169.025C292.284 169.292 292.434 169.653 292.434 170.03C292.434 170.407 292.284 170.768 292.018 171.034C291.751 171.301 291.39 171.451 291.013 171.451Z" fill="#CBCBCB"/>
<path id="Vector_43" d="M114.844 192.051H36.7038C36.5169 192.052 36.3318 192.015 36.159 191.944C35.9861 191.873 35.8291 191.768 35.6967 191.636C35.5644 191.504 35.4594 191.348 35.3878 191.175C35.3162 191.002 35.2793 190.817 35.2793 190.63C35.2793 190.444 35.3162 190.259 35.3878 190.086C35.4594 189.913 35.5644 189.756 35.6967 189.625C35.8291 189.493 35.9861 189.388 36.159 189.317C36.3318 189.246 36.5169 189.209 36.7038 189.21H114.844C115.22 189.211 115.58 189.361 115.846 189.627C116.111 189.894 116.261 190.254 116.261 190.63C116.261 191.007 116.111 191.367 115.846 191.634C115.58 191.9 115.22 192.05 114.844 192.051Z" fill="#CBCBCB"/>
<path id="Vector_44" d="M187.901 468.486C187.901 526.246 127.347 553.883 127.347 553.883C127.347 553.883 66.171 526.246 64.9289 468.486C64.1988 434.536 92.4571 407 126.415 407C134.489 407 142.485 408.59 149.945 411.68C157.404 414.77 164.183 419.299 169.892 425.009C175.602 430.718 180.131 437.497 183.221 444.956C186.311 452.416 187.901 460.412 187.901 468.486V468.486Z" fill="#E5E5E5"/>
<path id="Vector_45" d="M147.842 557.299H106.851L101.882 537.425H152.81L147.842 557.299Z" fill="#CBCBCB"/>
<path id="Vector_46" d="M146.444 591.288H108.248V611.192H146.444V591.288Z" fill="white"/>
<path id="Vector_47" d="M146.755 611.503H107.938V590.977H146.755V611.503ZM108.559 610.882H146.133V591.598H108.559V610.882Z" fill="#CBCBCB"/>
<path id="Vector_48" d="M135.176 559.643H119.517L117.72 556.819H136.973L135.176 559.643Z" fill="#CBCBCB"/>
<path id="Vector_49" d="M107.782 557.299H107.161V587.732H107.782V557.299Z" fill="#CBCBCB"/>
<path id="Vector_50" d="M147.531 557.299H146.91V587.732H147.531V557.299Z" fill="#CBCBCB"/>
<path id="Vector_51" d="M133.572 537.088L133.192 536.596C151.135 522.76 172.523 499.056 172.523 464.706C172.537 452.676 168.999 440.909 162.352 430.881C155.705 420.853 146.245 413.011 135.159 408.338L135.401 407.766C146.6 412.487 156.155 420.408 162.87 430.538C169.584 440.667 173.158 452.554 173.144 464.706C173.144 499.309 151.624 523.167 133.572 537.088Z" fill="#CBCBCB"/>
<path id="Vector_52" d="M113.698 537.089L113.318 536.597C131.261 522.76 152.649 499.057 152.649 464.706C152.654 452.757 149.158 441.067 142.593 431.082C136.029 421.097 126.683 413.253 115.711 408.52L115.957 407.95C127.041 412.731 136.481 420.654 143.112 430.741C149.744 440.827 153.275 452.635 153.27 464.706C153.27 499.309 131.75 523.167 113.698 537.089Z" fill="#CBCBCB"/>
<path id="Vector_53" d="M139.132 537.088C121.079 523.167 99.5596 499.309 99.5596 464.706C99.5546 452.635 103.086 440.827 109.717 430.74C116.348 420.654 125.789 412.731 136.873 407.95L137.119 408.52C126.146 413.253 116.801 421.096 110.236 431.082C103.672 441.067 100.176 452.757 100.181 464.706C100.181 499.056 121.569 522.76 139.511 536.596L139.132 537.088Z" fill="#CBCBCB"/>
<path id="Vector_54" d="M119.258 537.088C101.205 523.167 79.6856 499.309 79.6856 464.706C79.6654 452.506 83.2646 440.573 90.0278 430.419C96.7911 420.264 106.414 412.344 117.68 407.66L117.92 408.234C106.767 412.87 97.2403 420.711 90.545 430.763C83.8496 440.816 80.2866 452.628 80.3066 464.706C80.3066 499.057 101.695 522.76 119.637 536.596L119.258 537.088Z" fill="#CBCBCB"/>
<path id="Vector_55" d="M126.726 407H126.104V537.425H126.726V407Z" fill="#CBCBCB"/>
<path id="Vector_56" d="M119.417 586.775L108.028 598.163L108.467 598.602L119.856 587.214L119.417 586.775Z" fill="#CBCBCB"/>
<path id="Vector_57" d="M124.954 586.585L108.024 604.39L108.474 604.818L125.404 587.013L124.954 586.585Z" fill="#CBCBCB"/>
<path id="Vector_58" d="M150.015 586.8H103.435V592.39H150.015V586.8Z" fill="white"/>
<path id="Vector_59" d="M150.325 592.7H103.124V586.49H150.325V592.7ZM103.745 592.079H149.704V587.111H103.745V592.079Z" fill="#CBCBCB"/>
<path id="Vector_60" d="M305.091 322.105C305.091 360.229 265.123 378.471 265.123 378.471C265.123 378.471 224.744 360.229 223.924 322.105C223.442 299.697 242.094 281.522 264.508 281.522C275.271 281.522 285.594 285.798 293.205 293.409C300.815 301.019 305.091 311.342 305.091 322.105V322.105Z" fill="#E5E5E5"/>
<path id="Vector_61" d="M278.65 380.726H251.594L248.315 367.608H281.93L278.65 380.726Z" fill="#CBCBCB"/>
<path id="Vector_62" d="M277.728 403.16H252.517V416.298H277.728V403.16Z" fill="white"/>
<path id="Vector_63" d="M277.932 416.503H252.312V402.955H277.932V416.503ZM252.721 416.093H277.522V403.365H252.721V416.093Z" fill="#CBCBCB"/>
<path id="Vector_64" d="M270.29 382.273H259.954L258.768 380.409H271.476L270.29 382.273Z" fill="#CBCBCB"/>
<path id="Vector_65" d="M252.21 380.726H251.8V400.813H252.21V380.726Z" fill="#CBCBCB"/>
<path id="Vector_66" d="M278.445 380.726H278.035V400.813H278.445V380.726Z" fill="#CBCBCB"/>
<path id="Vector_67" d="M269.232 367.386L268.981 367.061C280.824 357.929 294.941 342.283 294.941 319.611C294.95 311.67 292.615 303.903 288.228 297.284C283.841 290.666 277.597 285.49 270.28 282.405L270.439 282.028C277.831 285.143 284.138 290.372 288.57 297.058C293.002 303.744 295.361 311.589 295.351 319.611C295.351 342.45 281.147 358.197 269.232 367.386Z" fill="#CBCBCB"/>
<path id="Vector_68" d="M256.114 367.386L255.863 367.062C267.706 357.929 281.823 342.283 281.823 319.611C281.826 311.724 279.519 304.008 275.186 297.417C270.853 290.827 264.685 285.65 257.442 282.525L257.605 282.149C264.921 285.305 271.152 290.535 275.529 297.192C279.905 303.85 282.236 311.644 282.233 319.611C282.233 342.45 268.029 358.198 256.114 367.386Z" fill="#CBCBCB"/>
<path id="Vector_69" d="M272.901 367.386C260.986 358.197 246.782 342.45 246.782 319.611C246.779 311.643 249.11 303.849 253.487 297.192C257.863 290.534 264.095 285.305 271.411 282.149L271.573 282.525C264.331 285.649 258.162 290.826 253.829 297.417C249.496 304.008 247.189 311.723 247.192 319.611C247.192 342.283 261.309 357.929 273.152 367.061L272.901 367.386Z" fill="#CBCBCB"/>
<path id="Vector_70" d="M259.783 367.386C247.868 358.197 233.664 342.45 233.664 319.611C233.651 311.558 236.026 303.682 240.49 296.98C244.954 290.277 251.306 285.049 258.742 281.958L258.9 282.336C251.539 285.397 245.251 290.572 240.832 297.207C236.413 303.842 234.061 311.639 234.074 319.611C234.074 342.284 248.191 357.929 260.034 367.061L259.783 367.386Z" fill="#CBCBCB"/>
<path id="Vector_71" d="M264.713 281.522H264.303V367.608H264.713V281.522Z" fill="#CBCBCB"/>
<path id="Vector_72" d="M259.889 400.181L252.372 407.698L256.197 411.524L263.714 404.007L259.889 400.181Z" fill="#CBCBCB"/>
<path id="Vector_73" d="M263.543 400.056L252.369 411.808L256.29 415.536L267.464 403.784L263.543 400.056Z" fill="#CBCBCB"/>
<path id="Vector_74" d="M280.085 400.198H249.34V408.887H280.085V400.198Z" fill="white"/>
<path id="Vector_75" d="M280.29 409.093H249.135V399.993H280.29V409.093ZM249.545 408.183H279.88V400.903H249.545V408.183Z" fill="#CBCBCB"/>
<path id="Vector_76" d="M644.861 379.228C645.119 379.228 645.367 379.121 645.555 378.931C645.743 378.74 645.858 378.479 645.876 378.2C646.542 368.376 650.599 359.187 657.237 352.473C663.874 345.758 672.602 342.013 681.673 341.986C682.759 341.986 683.899 342.046 685.063 342.165C685.257 342.184 685.453 342.143 685.627 342.045C685.8 341.947 685.944 341.798 686.041 341.613C690.208 333.693 696.431 327.281 703.933 323.177C711.435 319.073 719.883 317.459 728.224 318.537C736.566 319.614 744.43 323.335 750.836 329.235C757.242 335.135 761.906 342.953 764.246 351.713C764.308 351.948 764.44 352.154 764.621 352.298C764.803 352.443 765.023 352.517 765.248 352.511L765.519 352.502C765.659 352.497 765.8 352.492 765.942 352.492C772.823 352.515 779.489 355.092 784.835 359.796C790.181 364.499 793.885 371.046 795.333 378.35C795.382 378.598 795.507 378.821 795.688 378.981C795.87 379.141 796.096 379.228 796.33 379.228H864.554C864.688 379.228 864.821 379.2 864.945 379.145C865.069 379.089 865.181 379.008 865.276 378.905C865.371 378.802 865.447 378.68 865.498 378.546C865.549 378.412 865.576 378.268 865.576 378.122C865.576 377.977 865.549 377.833 865.498 377.698C865.447 377.564 865.371 377.442 865.276 377.339C865.181 377.236 865.069 377.155 864.945 377.099C864.821 377.044 864.688 377.016 864.554 377.016H797.145C795.448 369.419 791.456 362.658 785.807 357.812C780.158 352.966 773.176 350.314 765.977 350.28C763.414 341.278 758.499 333.277 751.828 327.251C745.157 321.224 737.018 317.431 728.4 316.332C719.782 315.233 711.055 316.875 703.28 321.06C695.505 325.244 689.016 331.79 684.602 339.902C683.6 339.817 682.618 339.775 681.673 339.775C672.087 339.803 662.864 343.761 655.849 350.857C648.835 357.953 644.548 367.663 643.844 378.045C643.835 378.19 643.852 378.335 643.894 378.473C643.937 378.61 644.004 378.738 644.091 378.847C644.179 378.957 644.286 379.047 644.406 379.112C644.525 379.176 644.656 379.215 644.789 379.225C644.813 379.227 644.837 379.228 644.861 379.228Z" fill="#CBCBCB"/>
<path id="Vector_77" d="M656.978 392.285H823.989C824.259 392.285 824.518 391.914 824.709 391.254C824.9 390.595 825.007 389.7 825.007 388.767C825.007 387.833 824.9 386.939 824.709 386.279C824.518 385.619 824.259 385.248 823.989 385.248H656.978C656.708 385.248 656.449 385.619 656.258 386.279C656.067 386.939 655.96 387.833 655.96 388.767C655.96 389.7 656.067 390.595 656.258 391.254C656.449 391.914 656.708 392.285 656.978 392.285V392.285Z" fill="#CBCBCB"/>
<path id="Vector_78" d="M783.255 407.051H839.264C839.534 407.048 839.792 406.676 839.982 406.017C840.173 405.357 840.279 404.464 840.279 403.533C840.279 402.602 840.173 401.708 839.982 401.049C839.792 400.389 839.534 400.017 839.264 400.014H783.255C783.121 400.014 782.989 400.105 782.865 400.282C782.741 400.459 782.629 400.718 782.535 401.045C782.44 401.372 782.365 401.76 782.314 402.186C782.263 402.613 782.236 403.071 782.236 403.533C782.236 403.995 782.263 404.452 782.314 404.879C782.365 405.306 782.44 405.694 782.535 406.021C782.629 406.347 782.741 406.606 782.865 406.783C782.989 406.96 783.121 407.051 783.255 407.051V407.051Z" fill="#CBCBCB"/>
<path id="Vector_79" d="M439.32 493.228C439.062 493.228 438.814 493.121 438.626 492.931C438.438 492.74 438.323 492.479 438.305 492.2C437.639 482.376 433.582 473.187 426.945 466.473C420.307 459.758 411.58 456.013 402.508 455.986C401.423 455.986 400.282 456.046 399.118 456.165C398.924 456.184 398.728 456.143 398.554 456.045C398.381 455.948 398.237 455.798 398.14 455.613C393.973 447.693 387.75 441.281 380.249 437.177C372.747 433.073 364.298 431.459 355.957 432.537C347.616 433.614 339.751 437.335 333.345 443.235C326.939 449.135 322.275 456.953 319.935 465.713C319.873 465.948 319.741 466.154 319.56 466.298C319.379 466.443 319.158 466.517 318.934 466.511L318.663 466.502C318.522 466.497 318.381 466.492 318.239 466.492C311.359 466.515 304.692 469.092 299.346 473.796C294 478.499 290.296 485.046 288.848 492.35C288.8 492.598 288.674 492.821 288.493 492.981C288.311 493.141 288.085 493.228 287.851 493.228H219.627C219.493 493.228 219.36 493.2 219.236 493.145C219.112 493.089 219 493.008 218.905 492.905C218.81 492.803 218.735 492.68 218.683 492.546C218.632 492.412 218.605 492.268 218.605 492.122C218.605 491.977 218.632 491.832 218.683 491.698C218.735 491.564 218.81 491.442 218.905 491.339C219 491.236 219.112 491.155 219.236 491.099C219.36 491.044 219.493 491.016 219.627 491.016H287.036C288.733 483.419 292.725 476.658 298.374 471.812C304.023 466.966 311.005 464.314 318.204 464.28C320.767 455.278 325.682 447.277 332.353 441.251C339.024 435.224 347.163 431.431 355.781 430.332C364.399 429.233 373.126 430.875 380.901 435.06C388.676 439.244 395.165 445.79 399.579 453.902C400.581 453.818 401.563 453.775 402.508 453.775C412.095 453.803 421.318 457.761 428.332 464.857C435.346 471.953 439.634 481.663 440.337 492.045C440.346 492.19 440.329 492.335 440.287 492.473C440.245 492.61 440.178 492.738 440.09 492.847C440.002 492.957 439.895 493.047 439.776 493.112C439.656 493.177 439.526 493.215 439.392 493.225C439.368 493.227 439.344 493.228 439.32 493.228Z" fill="#CBCBCB"/>
<path id="Vector_80" d="M427.204 506.285H260.193C260.059 506.286 259.927 506.196 259.803 506.02C259.679 505.844 259.566 505.585 259.471 505.258C259.376 504.932 259.301 504.543 259.25 504.116C259.198 503.688 259.172 503.23 259.172 502.767C259.172 502.304 259.198 501.845 259.25 501.418C259.301 500.99 259.376 500.602 259.471 500.275C259.566 499.948 259.679 499.689 259.803 499.513C259.927 499.337 260.059 499.247 260.193 499.248H427.204C427.474 499.248 427.733 499.619 427.924 500.279C428.115 500.939 428.222 501.834 428.222 502.767C428.222 503.7 428.115 504.595 427.924 505.255C427.733 505.914 427.474 506.285 427.204 506.285Z" fill="#CBCBCB"/>
<path id="Vector_81" d="M300.928 521.051H244.918C244.784 521.053 244.651 520.962 244.527 520.786C244.403 520.61 244.291 520.351 244.196 520.024C244.101 519.698 244.026 519.309 243.974 518.882C243.923 518.454 243.896 517.996 243.896 517.533C243.896 517.07 243.923 516.611 243.974 516.184C244.026 515.756 244.101 515.368 244.196 515.041C244.291 514.714 244.403 514.455 244.527 514.279C244.651 514.103 244.784 514.013 244.918 514.014H300.928C301.062 514.013 301.194 514.103 301.318 514.279C301.442 514.455 301.555 514.714 301.65 515.041C301.745 515.368 301.82 515.756 301.871 516.184C301.923 516.611 301.949 517.07 301.949 517.533C301.949 517.996 301.923 518.454 301.871 518.882C301.82 519.309 301.745 519.698 301.65 520.024C301.555 520.351 301.442 520.61 301.318 520.786C301.194 520.962 301.062 521.053 300.928 521.051V521.051Z" fill="#CBCBCB"/>
</g>
</g>
<defs>
<clipPath id="clip0_209_2">
<rect width="865.573" height="658.549" fill="white"/>
</clipPath>
</defs>
</svg>
