<svg width="700" height="400" viewBox="0 0 700 400" fill="none" xmlns="http://www.w3.org/2000/svg">
<g clip-path="url(#clip0_203_13)">
<rect width="700" height="400" fill="white"/>
<ellipse cx="38.0289" cy="59.2531" rx="90.7613" ry="73.2531" fill="#C4C4C4"/>
<ellipse cx="12.8952" cy="400.937" rx="115.895" ry="55.0628" fill="#C4C4C4"/>
<ellipse cx="644.501" cy="204.776" rx="114.499" ry="101.768" fill="#C4C4C4"/>
<path d="M131.293 158.032C131.293 155.347 131.73 152.683 132.604 150.04C133.517 147.397 134.828 145.006 136.536 142.866C138.244 140.684 140.349 138.964 142.851 137.706C145.353 136.405 148.193 135.755 151.37 135.755C155.104 135.755 158.321 136.678 161.022 138.524C163.723 140.328 165.708 142.656 166.979 145.509L163.703 147.649C162.789 145.677 161.637 144.125 160.247 142.992C158.857 141.817 157.368 140.978 155.779 140.475C154.23 139.971 152.681 139.72 151.132 139.72C148.59 139.72 146.346 140.265 144.4 141.356C142.454 142.405 140.805 143.831 139.455 145.635C138.144 147.439 137.151 149.432 136.476 151.613C135.801 153.795 135.463 156.018 135.463 158.284C135.463 160.759 135.861 163.129 136.655 165.395C137.449 167.618 138.561 169.611 139.991 171.373C141.421 173.135 143.089 174.54 144.996 175.589C146.942 176.596 149.047 177.099 151.311 177.099C152.899 177.099 154.528 176.806 156.196 176.218C157.864 175.631 159.413 174.729 160.843 173.512C162.273 172.296 163.445 170.723 164.358 168.793L167.813 170.681C166.9 172.904 165.53 174.792 163.703 176.344C161.915 177.896 159.89 179.071 157.626 179.868C155.402 180.665 153.217 181.064 151.072 181.064C148.173 181.064 145.512 180.414 143.089 179.113C140.666 177.771 138.561 176.009 136.774 173.827C135.026 171.604 133.676 169.128 132.723 166.401C131.77 163.633 131.293 160.843 131.293 158.032Z" fill="black"/>
<path d="M173.804 167.157V147.9H177.855V166.401C177.855 173.827 180.258 177.54 185.064 177.54C187.447 177.54 189.671 176.722 191.736 175.086C193.841 173.449 195.351 171.268 196.264 168.541V147.9H200.315V175.526C200.315 176.659 200.792 177.246 201.745 177.288V180.686C201.269 180.77 200.891 180.812 200.613 180.812C200.375 180.812 200.117 180.812 199.839 180.812C199.005 180.728 198.29 180.393 197.694 179.805C197.138 179.218 196.86 178.505 196.86 177.666L196.741 173.261C195.39 175.82 193.543 177.813 191.2 179.239C188.896 180.623 186.394 181.316 183.693 181.316C177.1 181.316 173.804 176.596 173.804 167.157Z" fill="black"/>
<path d="M224.965 151.676C222.264 151.76 219.881 152.557 217.816 154.067C215.79 155.578 214.361 157.654 213.526 160.297V180.686H209.475V147.9H213.288V155.766C214.361 153.459 215.771 151.592 217.518 150.166C219.305 148.739 221.192 147.942 223.178 147.774C223.575 147.733 223.913 147.712 224.191 147.712C224.469 147.712 224.727 147.733 224.965 147.774V151.676Z" fill="black"/>
<path d="M240.55 181.316C238.008 181.316 235.644 180.875 233.46 179.994C231.315 179.071 229.429 177.729 227.8 175.967L229.468 172.946C231.216 174.666 232.964 175.925 234.711 176.722C236.498 177.477 238.385 177.854 240.371 177.854C242.754 177.854 244.7 177.351 246.209 176.344C247.758 175.295 248.533 173.806 248.533 171.876C248.533 170.576 248.156 169.59 247.401 168.919C246.686 168.205 245.633 167.639 244.243 167.22C242.893 166.8 241.265 166.318 239.358 165.772C237.213 165.143 235.406 164.493 233.937 163.821C232.507 163.108 231.415 162.227 230.66 161.178C229.945 160.088 229.588 158.682 229.588 156.962C229.588 154.864 230.084 153.102 231.077 151.676C232.11 150.25 233.5 149.18 235.247 148.467C237.035 147.712 239.02 147.334 241.205 147.334C243.588 147.334 245.693 147.733 247.52 148.53C249.347 149.327 250.837 150.438 251.988 151.865L250.022 154.76C248.95 153.417 247.619 152.431 246.031 151.802C244.482 151.131 242.794 150.795 240.967 150.795C239.696 150.795 238.484 150.984 237.332 151.361C236.181 151.697 235.227 152.284 234.473 153.123C233.758 153.921 233.4 155.032 233.4 156.459C233.4 158.221 234.016 159.437 235.247 160.109C236.479 160.78 238.345 161.493 240.847 162.248C243.191 162.919 245.236 163.591 246.984 164.262C248.731 164.933 250.082 165.835 251.035 166.968C251.988 168.059 252.465 169.59 252.465 171.562C252.465 174.624 251.373 177.015 249.188 178.735C247.004 180.456 244.124 181.316 240.55 181.316Z" fill="black"/>
<path d="M272.387 181.316C269.408 181.316 266.747 180.539 264.404 178.987C262.1 177.435 260.293 175.379 258.983 172.82C257.672 170.219 257.017 167.408 257.017 164.388C257.017 161.325 257.672 158.514 258.983 155.955C260.333 153.354 262.16 151.278 264.464 149.725C266.807 148.131 269.448 147.334 272.387 147.334C275.366 147.334 278.007 148.131 280.311 149.725C282.654 151.278 284.481 153.354 285.792 155.955C287.142 158.514 287.818 161.325 287.818 164.388C287.818 167.408 287.162 170.219 285.852 172.82C284.541 175.379 282.714 177.435 280.371 178.987C278.067 180.539 275.406 181.316 272.387 181.316ZM261.127 164.451C261.127 166.884 261.624 169.107 262.617 171.121C263.649 173.093 265.02 174.666 266.727 175.841C268.435 176.973 270.322 177.54 272.387 177.54C274.453 177.54 276.339 176.953 278.047 175.778C279.755 174.603 281.125 173.009 282.158 170.995C283.191 168.982 283.707 166.758 283.707 164.325C283.707 161.892 283.191 159.668 282.158 157.654C281.125 155.641 279.755 154.046 278.047 152.872C276.339 151.697 274.453 151.11 272.387 151.11C270.362 151.11 268.495 151.718 266.787 152.935C265.079 154.109 263.709 155.704 262.676 157.717C261.644 159.731 261.127 161.975 261.127 164.451Z" fill="black"/>
<path d="M307.812 158.032C307.812 155.347 308.249 152.683 309.123 150.04C310.036 147.397 311.347 145.006 313.055 142.866C314.763 140.684 316.868 138.964 319.37 137.706C321.872 136.405 324.712 135.755 327.889 135.755C331.623 135.755 334.84 136.678 337.541 138.524C340.242 140.328 342.228 142.656 343.499 145.509L340.222 147.649C339.308 145.677 338.157 144.125 336.766 142.992C335.376 141.817 333.887 140.978 332.298 140.475C330.749 139.971 329.2 139.72 327.651 139.72C325.109 139.72 322.865 140.265 320.919 141.356C318.973 142.405 317.325 143.831 315.974 145.635C314.663 147.439 313.671 149.432 312.995 151.613C312.32 153.795 311.983 156.018 311.983 158.284C311.983 160.759 312.38 163.129 313.174 165.395C313.968 167.618 315.08 169.611 316.51 171.373C317.94 173.135 319.608 174.54 321.515 175.589C323.461 176.596 325.566 177.099 327.83 177.099C329.419 177.099 331.047 176.806 332.715 176.218C334.383 175.631 335.932 174.729 337.362 173.512C338.792 172.296 339.964 170.723 340.877 168.793L344.333 170.681C343.419 172.904 342.049 174.792 340.222 176.344C338.435 177.896 336.409 179.071 334.145 179.868C331.921 180.665 329.736 181.064 327.592 181.064C324.692 181.064 322.031 180.414 319.608 179.113C317.186 177.771 315.08 176.009 313.293 173.827C311.546 171.604 310.195 169.128 309.242 166.401C308.289 163.633 307.812 160.843 307.812 158.032Z" fill="black"/>
<path d="M376.179 144.376C374.988 142.992 373.399 141.859 371.413 140.978C369.427 140.055 367.163 139.594 364.621 139.594C360.888 139.594 358.167 140.349 356.459 141.859C354.751 143.328 353.897 145.341 353.897 147.9C353.897 149.662 354.315 151.047 355.149 152.054C355.983 153.061 357.254 153.9 358.962 154.571C360.709 155.2 362.933 155.829 365.634 156.459C368.653 157.13 371.254 157.927 373.439 158.85C375.623 159.773 377.311 161.031 378.503 162.626C379.694 164.178 380.29 166.297 380.29 168.982C380.29 171.708 379.635 173.974 378.324 175.778C377.013 177.582 375.206 178.924 372.902 179.805C370.599 180.644 367.977 181.064 365.038 181.064C358.445 181.064 352.785 178.903 348.059 174.582L350.144 170.995C351.653 172.673 353.719 174.121 356.34 175.337C359.001 176.554 361.94 177.162 365.157 177.162C368.494 177.162 371.115 176.512 373.022 175.211C374.928 173.911 375.881 171.981 375.881 169.422C375.881 167.576 375.405 166.108 374.451 165.017C373.498 163.884 372.068 162.961 370.162 162.248C368.255 161.535 365.912 160.843 363.132 160.171C360.193 159.458 357.71 158.661 355.685 157.78C353.699 156.899 352.19 155.745 351.157 154.319C350.124 152.893 349.608 150.963 349.608 148.53C349.608 145.761 350.243 143.432 351.514 141.545C352.825 139.615 354.612 138.167 356.876 137.202C359.14 136.196 361.742 135.692 364.681 135.692C367.461 135.692 369.963 136.154 372.188 137.077C374.412 137.958 376.417 139.216 378.205 140.852L376.179 144.376Z" fill="black"/>
<path d="M412.367 144.376C411.176 142.992 409.587 141.859 407.601 140.978C405.615 140.055 403.351 139.594 400.809 139.594C397.076 139.594 394.355 140.349 392.647 141.859C390.94 143.328 390.086 145.341 390.086 147.9C390.086 149.662 390.503 151.047 391.337 152.054C392.171 153.061 393.442 153.9 395.15 154.571C396.897 155.2 399.121 155.829 401.822 156.459C404.841 157.13 407.442 157.927 409.627 158.85C411.811 159.773 413.499 161.031 414.691 162.626C415.882 164.178 416.478 166.297 416.478 168.982C416.478 171.708 415.823 173.974 414.512 175.778C413.201 177.582 411.394 178.924 409.091 179.805C406.787 180.644 404.166 181.064 401.227 181.064C394.633 181.064 388.974 178.903 384.247 174.582L386.332 170.995C387.842 172.673 389.907 174.121 392.528 175.337C395.189 176.554 398.129 177.162 401.346 177.162C404.682 177.162 407.303 176.512 409.21 175.211C411.116 173.911 412.069 171.981 412.069 169.422C412.069 167.576 411.593 166.108 410.64 165.017C409.686 163.884 408.257 162.961 406.35 162.248C404.444 161.535 402.1 160.843 399.32 160.171C396.381 159.458 393.899 158.661 391.873 157.78C389.887 156.899 388.378 155.745 387.345 154.319C386.312 152.893 385.796 150.963 385.796 148.53C385.796 145.761 386.432 143.432 387.703 141.545C389.013 139.615 390.801 138.167 393.065 137.202C395.328 136.196 397.93 135.692 400.869 135.692C403.649 135.692 406.152 136.154 408.376 137.077C410.6 137.958 412.606 139.216 414.393 140.852L412.367 144.376Z" fill="black"/>
<ellipse cx="482.992" cy="395.038" rx="122.411" ry="40.3138" fill="#C4C4C4"/>
<ellipse cx="252.133" cy="289.828" rx="151.269" ry="56.046" fill="#C4C4C4"/>
<ellipse cx="497.886" cy="37.1297" rx="107.517" ry="51.1297" fill="#C4C4C4"/>
</g>
<defs>
<clipPath id="clip0_203_13">
<rect width="700" height="400" fill="white"/>
</clipPath>
</defs>
</svg>
